Adsworth-72PT G1 XT.ufo
<glyph name="exclam" format="2">
  <advance width="512"/>
  <unicode hex="0021"/>
  <outline>
    <contour>
      <point x="71" y="362" type="line"/>
      <point x="71" y="1500" type="line"/>
      <point x="441" y="1500" type="line"/>
      <point x="441" y="362" type="line"/>
    </contour>
    <contour>
      <point x="255.0" y="-39.0" type="line" smooth="yes"/>
      <point x="362.0" y="-39.0"/>
      <point x="473" y="64"/>
      <point x="473" y="147" type="qcurve" smooth="yes"/>
      <point x="473" y="159" type="line" smooth="yes"/>
      <point x="473" y="243"/>
      <point x="364.0" y="348.0"/>
      <point x="255.0" y="348" type="qcurve" smooth="yes"/>
      <point x="252" y="348" type="line" smooth="yes"/>
      <point x="149.0" y="348"/>
      <point x="43" y="243"/>
      <point x="43" y="159" type="qcurve" smooth="yes"/>
      <point x="43" y="147" type="line" smooth="yes"/>
      <point x="43" y="62"/>
      <point x="148.0" y="-39.0"/>
      <point x="252" y="-39.0" type="qcurve" smooth="yes"/>
    </contour>
  </outline>
</glyph>
<glyph name="numbersign" format="2">
  <advance width="1082"/>
  <unicode hex="0023"/>
  <outline>
    <contour>
      <point x="70" y="0" type="line"/>
      <point x="240" y="1500" type="line"/>
      <point x="514" y="1500" type="line"/>
      <point x="344" y="0" type="line"/>
    </contour>
    <contour>
      <point x="1026" y="340" type="line"/>
      <point x="-14" y="340" type="line"/>
      <point x="-14" y="680" type="line"/>
      <point x="1026" y="680" type="line"/>
    </contour>
    <contour>
      <point x="1096" y="845" type="line"/>
      <point x="36" y="845" type="line"/>
      <point x="36" y="1185" type="line"/>
      <point x="1096" y="1185" type="line"/>
    </contour>
    <contour>
      <point x="550" y="0" type="line"/>
      <point x="720" y="1500" type="line"/>
      <point x="994" y="1500" type="line"/>
      <point x="824" y="0" type="line"/>
    </contour>
  </outline>
</glyph>
<glyph name="dollar" format="2">
  <advance width="1160"/>
  <unicode hex="0024"/>
  <outline>
    <contour>
      <point x="737.0" y="390.0" type="line" smooth="yes"/>
      <point x="737.0" y="437.0"/>
      <point x="632" y="500"/>
      <point x="452" y="587" type="qcurve" smooth="yes"/>
      <point x="226" y="695"/>
      <point x="54" y="954"/>
      <point x="54" y="1105.0" type="qcurve" smooth="yes"/>
      <point x="54" y="1103.0" type="line" smooth="yes"/>
      <point x="54" y="1289.0"/>
      <point x="331.0" y="1504.0"/>
      <point x="556" y="1504.0" type="qcurve" smooth="yes"/>
      <point x="567" y="1504.0" type="line" smooth="yes"/>
      <point x="808" y="1504"/>
      <point x="1068.0" y="1329.0"/>
      <point x="1068" y="1124.0" type="qcurve" smooth="yes"/>
      <point x="1068" y="1095.0" type="line"/>
      <point x="698" y="1095.0" type="line"/>
      <point x="698.0" y="1162" type="line" smooth="yes"/>
      <point x="698.0" y="1220.0"/>
      <point x="628" y="1245"/>
      <point x="563.0" y="1245" type="qcurve" smooth="yes"/>
      <point x="559.0" y="1245" type="line" smooth="yes"/>
      <point x="505.0" y="1245.0"/>
      <point x="440.0" y="1193"/>
      <point x="440.0" y="1143" type="qcurve" smooth="yes"/>
      <point x="440.0" y="1125" type="line" smooth="yes"/>
      <point x="440" y="1083"/>
      <point x="529" y="1023"/>
      <point x="686" y="961" type="qcurve" smooth="yes"/>
      <point x="852.0" y="895"/>
      <point x="1116.0" y="665.0"/>
      <point x="1116.0" y="458.0" type="qcurve" smooth="yes"/>
      <point x="1116.0" y="451.0" type="line" smooth="yes"/>
      <point x="1116.0" y="268.0"/>
      <point x="839" y="-18.0"/>
      <point x="586" y="-18.0" type="qcurve" smooth="yes"/>
      <point x="582" y="-18.0" type="line" smooth="yes"/>
      <point x="311.0" y="-18"/>
      <point x="37" y="211.0"/>
      <point x="37" y="386.0" type="qcurve" smooth="yes"/>
      <point x="37" y="454.0" type="line"/>
      <point x="387.0" y="452.0" type="line"/>
      <point x="387.0" y="395" type="line" smooth="yes"/>
      <point x="387.0" y="323.0"/>
      <point x="481" y="224"/>
      <point x="572.0" y="224" type="qcurve" smooth="yes"/>
      <point x="578.0" y="224" type="line" smooth="yes"/>
      <point x="665.0" y="224.0"/>
      <point x="737.0" y="321.0"/>
      <point x="737.0" y="382" type="qcurve" smooth="yes"/>
    </contour>
    <contour>
      <point x="445.0" y="-100.0" type="line"/>
      <point x="445.0" y="201.0" type="line"/>
      <point x="720.0" y="201.0" type="line"/>
      <point x="720.0" y="-100.0" type="line"/>
    </contour>
    <contour>
      <point x="445.0" y="1280.0" type="line"/>
      <point x="445.0" y="1593.0" type="line"/>
      <point x="720.0" y="1593.0" type="line"/>
      <point x="720.0" y="1280.0" type="line"/>
    </contour>
  </outline>
</glyph>
<glyph name="percent" format="2">
  <advance width="1733"/>
  <unicode hex="0025"/>
  <outline>
    <contour>
      <point x="419.0" y="666" type="line" smooth="yes"/>
      <point x="228.0" y="666"/>
      <point x="-3.0" y="885"/>
      <point x="-3.0" y="1078" type="qcurve" smooth="yes"/>
      <point x="-3.0" y="1105" type="line" smooth="yes"/>
      <point x="-3.0" y="1297"/>
      <point x="234.0" y="1526"/>
      <point x="417.0" y="1526" type="qcurve" smooth="yes"/>
      <point x="422.0" y="1526" type="line" smooth="yes"/>
      <point x="618.0" y="1526"/>
      <point x="856.0" y="1297"/>
      <point x="856.0" y="1105" type="qcurve" smooth="yes"/>
      <point x="856.0" y="1078" type="line" smooth="yes"/>
      <point x="856.0" y="885"/>
      <point x="615.0" y="666"/>
      <point x="426.0" y="666" type="qcurve" smooth="yes"/>
    </contour>
    <contour>
      <point x="426" y="936" type="line" smooth="yes"/>
      <point x="479" y="936"/>
      <point x="537" y="1012"/>
      <point x="537" y="1081" type="qcurve" smooth="yes"/>
      <point x="537" y="1092" type="line" smooth="yes"/>
      <point x="537" y="1162"/>
      <point x="481" y="1240"/>
      <point x="426" y="1240" type="qcurve" smooth="yes"/>
      <point x="423" y="1240" type="line" smooth="yes"/>
      <point x="371" y="1240"/>
      <point x="316" y="1162"/>
      <point x="316" y="1092" type="qcurve" smooth="yes"/>
      <point x="316" y="1081" type="line" smooth="yes"/>
      <point x="316" y="1012"/>
      <point x="370" y="936"/>
      <point x="423" y="936" type="qcurve" smooth="yes"/>
    </contour>
    <contour>
      <point x="1299.0" y="-25.0" type="line" smooth="yes"/>
      <point x="1108.0" y="-25.0"/>
      <point x="877.0" y="194"/>
      <point x="877.0" y="387" type="qcurve" smooth="yes"/>
      <point x="877.0" y="414" type="line" smooth="yes"/>
      <point x="877.0" y="606"/>
      <point x="1114.0" y="835"/>
      <point x="1297.0" y="835" type="qcurve" smooth="yes"/>
      <point x="1302.0" y="835" type="line" smooth="yes"/>
      <point x="1498.0" y="835"/>
      <point x="1736.0" y="606"/>
      <point x="1736.0" y="414" type="qcurve" smooth="yes"/>
      <point x="1736.0" y="387" type="line" smooth="yes"/>
      <point x="1736.0" y="194"/>
      <point x="1495.0" y="-25.0"/>
      <point x="1306.0" y="-25.0" type="qcurve" smooth="yes"/>
    </contour>
    <contour>
      <point x="1306" y="231" type="line" smooth="yes"/>
      <point x="1359" y="231"/>
      <point x="1417" y="307"/>
      <point x="1417" y="376" type="qcurve" smooth="yes"/>
      <point x="1417" y="387" type="line" smooth="yes"/>
      <point x="1417" y="457"/>
      <point x="1361" y="535"/>
      <point x="1306" y="535" type="qcurve" smooth="yes"/>
      <point x="1303" y="535" type="line" smooth="yes"/>
      <point x="1251" y="535"/>
      <point x="1196" y="457"/>
      <point x="1196" y="387" type="qcurve" smooth="yes"/>
      <point x="1196" y="376" type="line" smooth="yes"/>
      <point x="1196" y="307"/>
      <point x="1250" y="231"/>
      <point x="1303" y="231" type="qcurve" smooth="yes"/>
    </contour>
    <contour>
      <point x="370" y="0" type="line"/>
      <point x="1140" y="1500" type="line"/>
      <point x="1360" y="1500" type="line"/>
      <point x="600" y="0" type="line"/>
    </contour>
  </outline>
</glyph>
<glyph name="parenleft" format="2">
  <advance width="566"/>
  <unicode hex="0028"/>
  <outline>
    <contour>
      <point x="412.0" y="-337.0" type="line"/>
      <point x="26" y="103.0"/>
      <point x="26" y="1127.0"/>
      <point x="407" y="1581.0" type="qcurve"/>
      <point x="611" y="1384.0" type="line"/>
      <point x="391" y="1016.0"/>
      <point x="391" y="187.0"/>
      <point x="614" y="-161.0" type="qcurve"/>
    </contour>
  </outline>
</glyph>
<glyph name="plus" format="2">
  <advance width="1000"/>
  <unicode hex="002B"/>
  <outline>
    <contour>
      <point x="1068" y="592" type="line"/>
      <point x="-60" y="602" type="line"/>
      <point x="-60" y="947" type="line"/>
      <point x="1068" y="937" type="line"/>
    </contour>
    <contour>
      <point x="677.0" y="1322.0" type="line"/>
      <point x="677.0" y="202.0" type="line"/>
      <point x="324.0" y="202.0" type="line"/>
      <point x="324.0" y="1322.0" type="line"/>
    </contour>
  </outline>
</glyph>
<glyph name="hyphen" format="2">
  <advance width="1432"/>
  <unicode hex="002D"/>
  <outline>
    <contour>
      <point x="1196" y="611" type="line"/>
      <point x="234" y="611" type="line"/>
      <point x="234" y="925" type="line"/>
      <point x="1196" y="925" type="line"/>
    </contour>
  </outline>
</glyph>
<glyph name="period" format="2">
  <advance width="600"/>
  <unicode hex="002E"/>
  <outline>
    <contour>
      <point x="296" y="-27" type="line" smooth="yes"/>
      <point x="388" y="-27"/>
      <point x="496" y="70"/>
      <point x="496" y="151" type="qcurve" smooth="yes"/>
      <point x="496" y="162" type="line" smooth="yes"/>
      <point x="496" y="241"/>
      <point x="391" y="340"/>
      <point x="296" y="340" type="qcurve" smooth="yes"/>
      <point x="293" y="340" type="line" smooth="yes"/>
      <point x="205" y="340"/>
      <point x="103" y="241"/>
      <point x="103" y="162" type="qcurve" smooth="yes"/>
      <point x="103" y="151" type="line" smooth="yes"/>
      <point x="103" y="70"/>
      <point x="204" y="-27"/>
      <point x="293" y="-27" type="qcurve" smooth="yes"/>
    </contour>
  </outline>
</glyph>
<glyph name="zero" format="2">
  <advance width="1183"/>
  <unicode hex="0030"/>
  <outline>
    <contour>
      <point x="592" y="-26.0" type="line" smooth="yes"/>
      <point x="320.0" y="-26"/>
      <point x="47" y="400"/>
      <point x="47" y="738.0" type="qcurve" smooth="yes"/>
      <point x="47" y="759.0" type="line" smooth="yes"/>
      <point x="47" y="1093"/>
      <point x="333.0" y="1512.0"/>
      <point x="589" y="1512.0" type="qcurve" smooth="yes"/>
      <point x="593" y="1512.0" type="line" smooth="yes"/>
      <point x="860.0" y="1512.0"/>
      <point x="1136" y="1093"/>
      <point x="1136" y="759.0" type="qcurve" smooth="yes"/>
      <point x="1136" y="738.0" type="line" smooth="yes"/>
      <point x="1136" y="400"/>
      <point x="872.0" y="-26.0"/>
      <point x="596" y="-26.0" type="qcurve" smooth="yes"/>
    </contour>
    <contour>
      <point x="590.0" y="201" type="line" smooth="yes"/>
      <point x="662.0" y="201.0"/>
      <point x="720.0" y="349.0"/>
      <point x="720.0" y="545" type="qcurve" smooth="yes"/>
      <point x="720.0" y="945" type="line" smooth="yes"/>
      <point x="720.0" y="1134.0"/>
      <point x="662.0" y="1272.0"/>
      <point x="590.0" y="1272" type="qcurve" smooth="yes"/>
      <point x="588.0" y="1272" type="line" smooth="yes"/>
      <point x="518.0" y="1272.0"/>
      <point x="463.0" y="1134.0"/>
      <point x="463.0" y="945" type="qcurve" smooth="yes"/>
      <point x="463.0" y="545" type="line" smooth="yes"/>
      <point x="463.0" y="349.0"/>
      <point x="517.0" y="201"/>
      <point x="588.0" y="201" type="qcurve" smooth="yes"/>
    </contour>
  </outline>
</glyph>
<glyph name="one" format="2">
  <advance width="422"/>
  <unicode hex="0031"/>
  <outline>
    <contour>
      <point x="28" y="0" type="line"/>
      <point x="28" y="1500" type="line"/>
      <point x="394" y="1500" type="line"/>
      <point x="394" y="0" type="line"/>
    </contour>
  </outline>
</glyph>
<glyph name="two" format="2">
  <advance width="930"/>
  <unicode hex="0032"/>
  <outline>
    <contour>
      <point x="927" y="0.0" type="line"/>
      <point x="5" y="0" type="line"/>
      <point x="5.0" y="220" type="line"/>
      <point x="473.0" y="889" type="line" smooth="yes"/>
      <point x="499" y="927"/>
      <point x="582.0" y="1036.0"/>
      <point x="582" y="1106.0" type="qcurve" smooth="yes"/>
      <point x="582" y="1135.0" type="line" smooth="yes"/>
      <point x="582.0" y="1190.0"/>
      <point x="516.0" y="1244.0"/>
      <point x="463" y="1244.0" type="qcurve" smooth="yes"/>
      <point x="456" y="1244.0" type="line" smooth="yes"/>
      <point x="406.0" y="1244.0"/>
      <point x="342.0" y="1185.0"/>
      <point x="341" y="1130.0" type="qcurve" smooth="yes"/>
      <point x="341" y="1045.0" type="line"/>
      <point x="14" y="1040.0" type="line"/>
      <point x="14" y="1132.0" type="line" smooth="yes"/>
      <point x="15" y="1289"/>
      <point x="264.0" y="1517.0"/>
      <point x="456" y="1517.0" type="qcurve" smooth="yes"/>
      <point x="474" y="1517.0" type="line" smooth="yes"/>
      <point x="677.0" y="1517.0"/>
      <point x="928.0" y="1343.0"/>
      <point x="928.0" y="1170.0" type="qcurve" smooth="yes"/>
      <point x="928.0" y="1162.0" type="line" smooth="yes"/>
      <point x="928.0" y="1021.0"/>
      <point x="827" y="849"/>
      <point x="768" y="766.0" type="qcurve" smooth="yes"/>
      <point x="434" y="272.0" type="line"/>
      <point x="927" y="272.0" type="line"/>
    </contour>
  </outline>
</glyph>
<glyph name="four" format="2">
  <advance width="985"/>
  <unicode hex="0034"/>
  <outline>
    <contour>
      <point x="549" y="0" type="line"/>
      <point x="549" y="1504" type="line"/>
      <point x="881" y="1501" type="line"/>
      <point x="881" y="2" type="line"/>
    </contour>
    <contour>
      <point x="985" y="575" type="line"/>
      <point x="985" y="308" type="line"/>
      <point x="11" y="308" type="line"/>
      <point x="-35" y="620" type="line"/>
      <point x="553" y="1481" type="line"/>
      <point x="764" y="1304" type="line"/>
      <point x="243" y="575" type="line"/>
    </contour>
  </outline>
</glyph>
<glyph name="six" format="2">
  <advance width="1046"/>
  <unicode hex="0036"/>
  <outline>
    <contour>
      <point x="414.0" y="500" type="qcurve"/>
      <point x="415.0" y="404" type="line" smooth="yes"/>
      <point x="427.0" y="344"/>
      <point x="483.0" y="202.0"/>
      <point x="541.0" y="202.0" type="qcurve" smooth="yes"/>
      <point x="552.0" y="202.0" type="line" smooth="yes"/>
      <point x="594.0" y="202.0"/>
      <point x="635" y="315"/>
      <point x="635.0" y="388" type="qcurve" smooth="yes"/>
      <point x="635.0" y="545" type="line" smooth="yes"/>
      <point x="635.0" y="633"/>
      <point x="586.0" y="740"/>
      <point x="543.0" y="740" type="qcurve" smooth="yes"/>
      <point x="538.0" y="740" type="line" smooth="yes"/>
      <point x="489.0" y="740"/>
      <point x="400" y="629"/>
      <point x="409.0" y="580" type="qcurve" smooth="yes"/>
      <point x="408.0" y="501" type="line"/>
      <point x="264" y="505.0" type="line"/>
      <point x="265" y="517.0" type="line" smooth="yes"/>
      <point x="281" y="714.0"/>
      <point x="515" y="933.0"/>
      <point x="649" y="933.0" type="qcurve" smooth="yes"/>
      <point x="656" y="933.0" type="line" smooth="yes"/>
      <point x="819" y="933.0"/>
      <point x="1022" y="681.0"/>
      <point x="1022" y="461.0" type="qcurve" smooth="yes"/>
      <point x="1022" y="448.0" type="line" smooth="yes"/>
      <point x="1022" y="242.0"/>
      <point x="761" y="-26.0"/>
      <point x="566" y="-26.0" type="qcurve" smooth="yes"/>
      <point x="554" y="-26.0" type="line" smooth="yes"/>
      <point x="329" y="-26.0"/>
      <point x="44" y="298"/>
      <point x="44" y="580.0" type="qcurve" smooth="yes"/>
      <point x="44.0" y="693" type="line" smooth="yes"/>
      <point x="44.0" y="1066"/>
      <point x="504.0" y="1530"/>
      <point x="827.0" y="1530" type="qcurve" smooth="yes"/>
      <point x="863" y="1530" type="line"/>
      <point x="863" y="1267" type="line"/>
      <point x="833" y="1267" type="line" smooth="yes"/>
      <point x="528" y="1267"/>
      <point x="408.0" y="787"/>
    </contour>
  </outline>
</glyph>
<glyph name="semicolon" format="2">
  <advance width="600"/>
  <unicode hex="003B"/>
  <outline>
    <contour>
      <point x="301" y="697.0" type="line" smooth="yes"/>
      <point x="387" y="697.0"/>
      <point x="487" y="791"/>
      <point x="487" y="869" type="qcurve" smooth="yes"/>
      <point x="487" y="879" type="line" smooth="yes"/>
      <point x="487" y="956"/>
      <point x="389" y="1052"/>
      <point x="301" y="1052" type="qcurve" smooth="yes"/>
      <point x="298" y="1052" type="line" smooth="yes"/>
      <point x="217" y="1052"/>
      <point x="122" y="956"/>
      <point x="122" y="879" type="qcurve" smooth="yes"/>
      <point x="122" y="869" type="line" smooth="yes"/>
      <point x="122" y="790"/>
      <point x="215" y="697.0"/>
      <point x="298" y="697.0" type="qcurve" smooth="yes"/>
    </contour>
    <contour>
      <point x="65.0" y="-117" type="line"/>
      <point x="128" y="160" type="line" smooth="yes"/>
      <point x="139" y="206"/>
      <point x="228" y="301"/>
      <point x="306" y="301" type="qcurve" smooth="yes"/>
      <point x="318" y="301.0" type="line" smooth="yes"/>
      <point x="384.0" y="301.0"/>
      <point x="469.0" y="209.0"/>
      <point x="469" y="158.0" type="qcurve" smooth="yes"/>
      <point x="469" y="148" type="line" smooth="yes"/>
      <point x="469" y="112"/>
      <point x="259" y="-82"/>
      <point x="181" y="-175.0" type="qcurve"/>
    </contour>
  </outline>
</glyph>
<glyph name="less" format="2">
  <advance width="1000"/>
  <unicode hex="003C"/>
  <outline>
    <contour>
      <point x="-12.0" y="604.0" type="line"/>
      <point x="-12.0" y="915.0" type="line"/>
      <point x="998.0" y="1296.0" type="line"/>
      <point x="998.0" y="993.0" type="line"/>
      <point x="384.0" y="773.0" type="line"/>
      <point x="998.0" y="511.0" type="line"/>
      <point x="998.0" y="200.0" type="line"/>
    </contour>
  </outline>
</glyph>
<glyph name="question" format="2">
  <advance width="897"/>
  <unicode hex="003F"/>
  <outline>
    <contour>
      <point x="452.0" y="-39" type="line" smooth="yes"/>
      <point x="555" y="-39"/>
      <point x="671" y="64"/>
      <point x="671" y="147" type="qcurve" smooth="yes"/>
      <point x="671" y="159" type="line" smooth="yes"/>
      <point x="671" y="242"/>
      <point x="556" y="348"/>
      <point x="452.0" y="348" type="qcurve" smooth="yes"/>
      <point x="446" y="348" type="line" smooth="yes"/>
      <point x="350" y="348"/>
      <point x="242" y="242"/>
      <point x="242" y="159" type="qcurve" smooth="yes"/>
      <point x="242" y="147" type="line" smooth="yes"/>
      <point x="242" y="62"/>
      <point x="348" y="-39"/>
      <point x="446" y="-39" type="qcurve" smooth="yes"/>
    </contour>
    <contour>
      <point x="606" y="412" type="line"/>
      <point x="266" y="412" type="line"/>
      <point x="266" y="866" type="line"/>
      <point x="404" y="856"/>
      <point x="603.0" y="1032.0"/>
      <point x="603" y="1122" type="qcurve" smooth="yes"/>
      <point x="603" y="1157" type="line" smooth="yes"/>
      <point x="603.0" y="1223.0"/>
      <point x="527" y="1275.0"/>
      <point x="447" y="1275" type="qcurve" smooth="yes"/>
      <point x="442" y="1275" type="line" smooth="yes"/>
      <point x="364" y="1275"/>
      <point x="278.0" y="1198.0"/>
      <point x="278" y="1120" type="qcurve" smooth="yes"/>
      <point x="278" y="1027" type="line"/>
      <point x="-36" y="1030.0" type="line"/>
      <point x="-36" y="1149.0" type="line" smooth="yes"/>
      <point x="-36" y="1326"/>
      <point x="241" y="1523.0"/>
      <point x="446" y="1523.0" type="qcurve" smooth="yes"/>
      <point x="453" y="1523.0" type="line" smooth="yes"/>
      <point x="665.0" y="1523.0"/>
      <point x="949.0" y="1335.0"/>
      <point x="949" y="1112.0" type="qcurve" smooth="yes"/>
      <point x="949" y="1100.0" type="line" smooth="yes"/>
      <point x="949.0" y="886.0"/>
      <point x="747" y="635"/>
      <point x="606" y="605" type="qcurve"/>
    </contour>
  </outline>
</glyph>
<glyph name="at" format="2">
  <advance width="1801"/>
  <unicode hex="0040"/>
  <outline>
    <contour>
      <point x="1172" y="741" type="qcurve" smooth="yes"/>
      <point x="1167" y="712" type="line" smooth="yes"/>
      <point x="1135" y="525"/>
      <point x="943" y="301"/>
      <point x="777" y="301" type="qcurve" smooth="yes"/>
      <point x="771" y="301" type="line" smooth="yes"/>
      <point x="585.0" y="301"/>
      <point x="421" y="563"/>
      <point x="463" y="764" type="qcurve" smooth="yes"/>
      <point x="469" y="793" type="line" smooth="yes"/>
      <point x="504" y="962"/>
      <point x="739.0" y="1171.0"/>
      <point x="897" y="1171" type="qcurve" smooth="yes"/>
      <point x="904" y="1171" type="line" smooth="yes"/>
      <point x="1044.0" y="1171.0"/>
      <point x="1204" y="927"/>
    </contour>
    <contour>
      <point x="1078" y="724.0" type="line" smooth="yes"/>
      <point x="1101.0" y="833.0"/>
      <point x="1010" y="1030.0"/>
      <point x="949" y="1030.0" type="qcurve" smooth="yes"/>
      <point x="945" y="1030.0" type="line" smooth="yes"/>
      <point x="872" y="1030.0"/>
      <point x="723" y="862.0"/>
      <point x="704" y="759.0" type="qcurve" smooth="yes"/>
      <point x="700" y="743.0" type="line" smooth="yes"/>
      <point x="672" y="606.0"/>
      <point x="747" y="412.0"/>
      <point x="857" y="412.0" type="qcurve" smooth="yes"/>
      <point x="861" y="412.0" type="line" smooth="yes"/>
      <point x="929" y="412.0"/>
      <point x="1053" y="599.0"/>
      <point x="1075" y="707.0" type="qcurve" smooth="yes"/>
    </contour>
    <contour>
      <point x="1077" y="614" type="qcurve" smooth="yes"/>
      <point x="1168" y="1125" type="line"/>
      <point x="1367" y="1125" type="line"/>
      <point x="1276" y="634" type="line" smooth="yes"/>
      <point x="1262" y="554"/>
      <point x="1309" y="464"/>
      <point x="1372" y="464" type="qcurve" smooth="yes"/>
      <point x="1476" y="464"/>
      <point x="1622.0" y="620"/>
      <point x="1622.0" y="784.0" type="qcurve" smooth="yes"/>
      <point x="1622.0" y="1037"/>
      <point x="1259.0" y="1384.0"/>
      <point x="938.0" y="1384.0" type="qcurve" smooth="yes"/>
      <point x="625.0" y="1384.0"/>
      <point x="234.0" y="1008.0"/>
      <point x="234.0" y="700.0" type="qcurve" smooth="yes"/>
      <point x="234.0" y="370.0"/>
      <point x="618" y="10"/>
      <point x="920.0" y="10.0" type="qcurve" smooth="yes"/>
      <point x="1125.0" y="10.0"/>
      <point x="1452.0" y="145.0"/>
      <point x="1510.0" y="197.0" type="qcurve"/>
      <point x="1594" y="98.0" type="line"/>
      <point x="1519" y="33.0"/>
      <point x="1192" y="-102.0"/>
      <point x="912" y="-102.0" type="qcurve" smooth="yes"/>
      <point x="540" y="-102.0"/>
      <point x="40" y="322.0"/>
      <point x="40" y="715.0" type="qcurve" smooth="yes"/>
      <point x="40" y="1077.0"/>
      <point x="551" y="1524.0"/>
      <point x="936" y="1524.0" type="qcurve" smooth="yes"/>
      <point x="1320" y="1524.0"/>
      <point x="1803.0" y="1117.0"/>
      <point x="1803.0" y="806.0" type="qcurve" smooth="yes"/>
      <point x="1803.0" y="618"/>
      <point x="1546" y="319"/>
      <point x="1307" y="319" type="qcurve" smooth="yes"/>
      <point x="1171" y="319"/>
      <point x="1054" y="472"/>
    </contour>
  </outline>
</glyph>
<glyph name="B" format="2">
  <advance width="1235"/>
  <unicode hex="0042"/>
  <outline>
    <contour>
      <point x="111" y="0" type="line"/>
      <point x="111" y="1500" type="line"/>
      <point x="503" y="1500" type="line"/>
      <point x="503" y="0" type="line"/>
    </contour>
    <contour>
      <point x="827" y="811" type="line"/>
      <point x="979" y="811"/>
      <point x="1221" y="628"/>
      <point x="1221.0" y="428" type="qcurve" smooth="yes"/>
      <point x="1221.0" y="418" type="line" smooth="yes"/>
      <point x="1221.0" y="222"/>
      <point x="982.0" y="0.0"/>
      <point x="762" y="0" type="qcurve" smooth="yes"/>
      <point x="320" y="0" type="line"/>
      <point x="320" y="219.0" type="line"/>
      <point x="603" y="219.0" type="line" smooth="yes"/>
      <point x="712.0" y="219.0"/>
      <point x="832" y="345"/>
      <point x="832" y="451.0" type="qcurve" smooth="yes"/>
      <point x="832" y="467.0" type="line" smooth="yes"/>
      <point x="832" y="570"/>
      <point x="721.0" y="688.0"/>
      <point x="623" y="688.0" type="qcurve" smooth="yes"/>
      <point x="320" y="688.0" type="line"/>
      <point x="320" y="878.0" type="line"/>
      <point x="615" y="878.0" type="line" smooth="yes"/>
      <point x="709.0" y="878.0"/>
      <point x="794.0" y="971"/>
      <point x="794.0" y="1060.0" type="qcurve" smooth="yes"/>
      <point x="794.0" y="1077.0" type="line" smooth="yes"/>
      <point x="794.0" y="1172.0"/>
      <point x="700.0" y="1270.0"/>
      <point x="622" y="1270.0" type="qcurve" smooth="yes"/>
      <point x="320" y="1270.0" type="line"/>
      <point x="320" y="1500" type="line"/>
      <point x="747" y="1500" type="line" smooth="yes"/>
      <point x="954.0" y="1500.0"/>
      <point x="1176" y="1298"/>
      <point x="1176.0" y="1133" type="qcurve" smooth="yes"/>
      <point x="1176" y="1122" type="line" smooth="yes"/>
      <point x="1176" y="961"/>
      <point x="996" y="809"/>
      <point x="822" y="809" type="qcurve"/>
    </contour>
  </outline>
</glyph>
<glyph name="D" format="2">
  <advance width="1375"/>
  <unicode hex="0044"/>
  <outline>
    <contour>
      <point x="90" y="0" type="line"/>
      <point x="90" y="1500" type="line"/>
      <point x="486" y="1500" type="line"/>
      <point x="486" y="0" type="line"/>
    </contour>
    <contour>
      <point x="638.0" y="252" type="line" smooth="yes"/>
      <point x="728" y="252"/>
      <point x="863.0" y="521"/>
      <point x="863.0" y="731" type="qcurve" smooth="yes"/>
      <point x="863.0" y="765" type="line" smooth="yes"/>
      <point x="863.0" y="975"/>
      <point x="727.0" y="1241"/>
      <point x="637.0" y="1242" type="qcurve" smooth="yes"/>
      <point x="302.0" y="1242" type="line"/>
      <point x="302.0" y="1500.0" type="line"/>
      <point x="621" y="1500.0" type="line" smooth="yes"/>
      <point x="910" y="1500.0"/>
      <point x="1297" y="1107"/>
      <point x="1297" y="759.0" type="qcurve" smooth="yes"/>
      <point x="1297" y="740.0" type="line" smooth="yes"/>
      <point x="1297" y="392"/>
      <point x="906" y="0.0"/>
      <point x="642" y="0.0" type="qcurve" smooth="yes"/>
      <point x="302.0" y="0.0" type="line"/>
      <point x="302.0" y="252" type="line"/>
    </contour>
  </outline>
</glyph>
<glyph name="G" format="2">
  <advance width="1490"/>
  <unicode hex="0047"/>
  <outline>
    <contour>
      <point x="787.0" y="207.0" type="line" smooth="yes"/>
      <point x="930.0" y="207.0"/>
      <point x="1020.0" y="342.0"/>
      <point x="1013.0" y="450" type="qcurve" smooth="yes"/>
      <point x="1011.0" y="551.0" type="line"/>
      <point x="872" y="551.0" type="line"/>
      <point x="872" y="795.0" type="line"/>
      <point x="1399" y="795.0" type="line"/>
      <point x="1394.0" y="522.0" type="line" smooth="yes"/>
      <point x="1389" y="274"/>
      <point x="1086" y="-17.0"/>
      <point x="799" y="-17.0" type="qcurve" smooth="yes"/>
      <point x="786" y="-17.0" type="line" smooth="yes"/>
      <point x="477" y="-17.0"/>
      <point x="78" y="375.0"/>
      <point x="78" y="743.0" type="qcurve" smooth="yes"/>
      <point x="78" y="755.0" type="line" smooth="yes"/>
      <point x="78" y="1108.0"/>
      <point x="473.0" y="1513.0"/>
      <point x="745" y="1513.0" type="qcurve" smooth="yes"/>
      <point x="757" y="1513.0" type="line" smooth="yes"/>
      <point x="1029.0" y="1513.0"/>
      <point x="1343" y="1257.0"/>
      <point x="1357" y="1036.0" type="qcurve" smooth="yes"/>
      <point x="1360" y="956.0" type="line"/>
      <point x="991" y="956.0" type="line"/>
      <point x="991.0" y="1008.0" type="line" smooth="yes"/>
      <point x="1000" y="1115"/>
      <point x="872.0" y="1270.0"/>
      <point x="775.0" y="1270.0" type="qcurve" smooth="yes"/>
      <point x="769.0" y="1270.0" type="line" smooth="yes"/>
      <point x="662.0" y="1270.0"/>
      <point x="517.0" y="1031.0"/>
      <point x="517.0" y="838.0" type="qcurve" smooth="yes"/>
      <point x="517.0" y="652.0" type="line" smooth="yes"/>
      <point x="517.0" y="455.0"/>
      <point x="640.0" y="207"/>
      <point x="783.0" y="207.0" type="qcurve" smooth="yes"/>
    </contour>
  </outline>
</glyph>
<glyph name="H" format="2">
  <advance width="1342"/>
  <unicode hex="0048"/>
  <outline>
    <contour>
      <point x="96" y="0" type="line"/>
      <point x="96" y="1500" type="line"/>
      <point x="506" y="1500" type="line"/>
      <point x="506" y="0" type="line"/>
    </contour>
    <contour>
      <point x="836" y="0" type="line"/>
      <point x="836" y="1500" type="line"/>
      <point x="1246" y="1500" type="line"/>
      <point x="1246" y="0" type="line"/>
    </contour>
    <contour>
      <point x="1046" y="654" type="line"/>
      <point x="296" y="654" type="line"/>
      <point x="296" y="934" type="line"/>
      <point x="1046" y="934" type="line"/>
    </contour>
  </outline>
</glyph>
<glyph name="J" format="2">
  <advance width="939"/>
  <unicode hex="004A"/>
  <outline>
    <contour>
      <point x="869.0" y="443.0" type="line" smooth="yes"/>
      <point x="869.0" y="199.0"/>
      <point x="625" y="-17"/>
      <point x="427" y="-17" type="qcurve" smooth="yes"/>
      <point x="420" y="-17" type="line" smooth="yes"/>
      <point x="210" y="-17"/>
      <point x="6" y="164.0"/>
      <point x="-1" y="347" type="qcurve" smooth="yes"/>
      <point x="-1" y="462" type="line"/>
      <point x="309" y="450.0" type="line"/>
      <point x="309.0" y="361" type="line" smooth="yes"/>
      <point x="309.0" y="312.0"/>
      <point x="339.0" y="245.0"/>
      <point x="382.0" y="245" type="qcurve" smooth="yes"/>
      <point x="389.0" y="245" type="line" smooth="yes"/>
      <point x="433.0" y="245.0"/>
      <point x="478.0" y="293.0"/>
      <point x="478.0" y="401.0" type="qcurve" smooth="yes"/>
      <point x="478" y="1510.0" type="line"/>
      <point x="869" y="1500" type="line"/>
    </contour>
  </outline>
</glyph>
<glyph name="K" format="2">
  <advance width="1230"/>
  <unicode hex="004B"/>
  <outline>
    <contour>
      <point x="90" y="0" type="line"/>
      <point x="90" y="1500" type="line"/>
      <point x="500" y="1500" type="line"/>
      <point x="493" y="974" type="line"/>
      <point x="627" y="1166" type="line"/>
      <point x="858" y="1500" type="line"/>
      <point x="1276" y="1500" type="line"/>
      <point x="791" y="827" type="line"/>
      <point x="719" y="837" type="line"/>
      <point x="493" y="584" type="line"/>
      <point x="500" y="0" type="line"/>
    </contour>
    <contour>
      <point x="364" y="741" type="line"/>
      <point x="627" y="1013" type="line"/>
      <point x="1361" y="0" type="line"/>
      <point x="872" y="0" type="line"/>
    </contour>
  </outline>
</glyph>
<glyph name="L" format="2">
  <advance width="978"/>
  <unicode hex="004C"/>
  <outline>
    <contour>
      <point x="89" y="0" type="line"/>
      <point x="89" y="1500" type="line"/>
      <point x="505" y="1500" type="line"/>
      <point x="505" y="0" type="line"/>
    </contour>
    <contour>
      <point x="968" y="0" type="line"/>
      <point x="302" y="0" type="line"/>
      <point x="302" y="284" type="line"/>
      <point x="968" y="284" type="line"/>
    </contour>
  </outline>
</glyph>
<glyph name="O" format="2">
  <advance width="1602"/>
  <unicode hex="004F"/>
  <outline>
    <contour>
      <point x="799" y="-18.0" type="line" smooth="yes"/>
      <point x="478.0" y="-18.0"/>
      <point x="78" y="404.0"/>
      <point x="78" y="734.0" type="qcurve" smooth="yes"/>
      <point x="78" y="753.0" type="line" smooth="yes"/>
      <point x="78" y="1091.0"/>
      <point x="480.0" y="1513.0"/>
      <point x="794" y="1513.0" type="qcurve" smooth="yes"/>
      <point x="802" y="1513.0" type="line" smooth="yes"/>
      <point x="1134" y="1513.0"/>
      <point x="1524.0" y="1091.0"/>
      <point x="1524" y="772.0" type="qcurve" smooth="yes"/>
      <point x="1524" y="722.0" type="line" smooth="yes"/>
      <point x="1524.0" y="404.0"/>
      <point x="1137.0" y="-18.0"/>
      <point x="807" y="-18.0" type="qcurve" smooth="yes"/>
    </contour>
    <contour>
      <point x="804.0" y="232.0" type="line" smooth="yes"/>
      <point x="935.0" y="232.0"/>
      <point x="1077.0" y="435.0"/>
      <point x="1077.0" y="659" type="qcurve" smooth="yes"/>
      <point x="1077.0" y="824" type="line" smooth="yes"/>
      <point x="1077.0" y="1051.0"/>
      <point x="938.0" y="1258"/>
      <point x="804.0" y="1258.0" type="qcurve" smooth="yes"/>
      <point x="798.0" y="1258.0" type="line" smooth="yes"/>
      <point x="670.0" y="1258"/>
      <point x="525.0" y="1071.0"/>
      <point x="525.0" y="837" type="qcurve" smooth="yes"/>
      <point x="525.0" y="651" type="line" smooth="yes"/>
      <point x="525.0" y="435.0"/>
      <point x="658.0" y="232.0"/>
      <point x="798.0" y="232.0" type="qcurve" smooth="yes"/>
    </contour>
  </outline>
</glyph>
<glyph name="R" format="2">
  <advance width="1221"/>
  <unicode hex="0052"/>
  <outline>
    <contour>
      <point x="90" y="0" type="line"/>
      <point x="90" y="1500" type="line"/>
      <point x="486" y="1500" type="line"/>
      <point x="486" y="0" type="line"/>
    </contour>
    <contour>
      <point x="735" y="633" type="qcurve" smooth="yes"/>
      <point x="306" y="633" type="line"/>
      <point x="306" y="858" type="line"/>
      <point x="597.0" y="858" type="line" smooth="yes"/>
      <point x="697.0" y="858.0"/>
      <point x="787.0" y="964"/>
      <point x="787.0" y="1063" type="qcurve" smooth="yes"/>
      <point x="787.0" y="1078" type="line" smooth="yes"/>
      <point x="787.0" y="1162"/>
      <point x="694.0" y="1258.0"/>
      <point x="605.0" y="1258" type="qcurve" smooth="yes"/>
      <point x="306" y="1258" type="line"/>
      <point x="306" y="1500" type="line"/>
      <point x="776" y="1500" type="line" smooth="yes"/>
      <point x="963.0" y="1500.0"/>
      <point x="1210.0" y="1295.0"/>
      <point x="1210" y="1085" type="qcurve" smooth="yes"/>
      <point x="1210" y="1070" type="line" smooth="yes"/>
      <point x="1210.0" y="852.0"/>
      <point x="965.0" y="633.0"/>
    </contour>
    <contour>
      <point x="820" y="846" type="line"/>
      <point x="1334" y="0" type="line"/>
      <point x="906" y="0" type="line"/>
      <point x="528" y="674" type="line"/>
    </contour>
  </outline>
</glyph>
<glyph name="S" format="2">
  <advance width="1160"/>
  <unicode hex="0053"/>
  <outline>
    <contour>
      <point x="737.0" y="394.0" type="line" smooth="yes"/>
      <point x="737.0" y="430.0"/>
      <point x="632" y="510"/>
      <point x="452" y="597" type="qcurve" smooth="yes"/>
      <point x="226" y="705"/>
      <point x="64" y="954.0"/>
      <point x="64" y="1105.0" type="qcurve" smooth="yes"/>
      <point x="64" y="1123.0" type="line" smooth="yes"/>
      <point x="64" y="1298.0"/>
      <point x="330.0" y="1513.0"/>
      <point x="555" y="1513.0" type="qcurve" smooth="yes"/>
      <point x="566" y="1513.0" type="line" smooth="yes"/>
      <point x="807" y="1513.0"/>
      <point x="1062.0" y="1338.0"/>
      <point x="1058" y="1144.0" type="qcurve" smooth="yes"/>
      <point x="1058" y="1095.0" type="line"/>
      <point x="698" y="1095.0" type="line"/>
      <point x="698.0" y="1182" type="line" smooth="yes"/>
      <point x="698" y="1229"/>
      <point x="627.0" y="1254"/>
      <point x="562.0" y="1254" type="qcurve" smooth="yes"/>
      <point x="558.0" y="1254" type="line" smooth="yes"/>
      <point x="504.0" y="1254.0"/>
      <point x="440.0" y="1202.0"/>
      <point x="440.0" y="1163" type="qcurve" smooth="yes"/>
      <point x="440.0" y="1145" type="line" smooth="yes"/>
      <point x="440" y="1103"/>
      <point x="529" y="1013"/>
      <point x="686" y="951" type="qcurve" smooth="yes"/>
      <point x="852.0" y="885"/>
      <point x="1106.0" y="665.0"/>
      <point x="1106.0" y="458.0" type="qcurve" smooth="yes"/>
      <point x="1106.0" y="461.0" type="line" smooth="yes"/>
      <point x="1106" y="268"/>
      <point x="839.0" y="-18.0"/>
      <point x="586" y="-18.0" type="qcurve" smooth="yes"/>
      <point x="582" y="-18.0" type="line" smooth="yes"/>
      <point x="311.0" y="-18.0"/>
      <point x="46" y="211.0"/>
      <point x="49" y="386.0" type="qcurve" smooth="yes"/>
      <point x="49" y="454.0" type="line"/>
      <point x="387.0" y="452.0" type="line"/>
      <point x="387.0" y="405" type="line" smooth="yes"/>
      <point x="387" y="323"/>
      <point x="481.0" y="224"/>
      <point x="572.0" y="224" type="qcurve" smooth="yes"/>
      <point x="578.0" y="224" type="line" smooth="yes"/>
      <point x="665.0" y="224.0"/>
      <point x="737.0" y="321.0"/>
      <point x="737.0" y="392" type="qcurve" smooth="yes"/>
    </contour>
  </outline>
</glyph>
<glyph name="T" format="2">
  <advance width="1046"/>
  <unicode hex="0054"/>
  <outline>
    <contour>
      <point x="328" y="0" type="line"/>
      <point x="328" y="1460" type="line"/>
      <point x="723" y="1460" type="line"/>
      <point x="723" y="0" type="line"/>
    </contour>
    <contour>
      <point x="1048" y="1216" type="line"/>
      <point x="-2" y="1216" type="line"/>
      <point x="-2" y="1500" type="line"/>
      <point x="1048" y="1500" type="line"/>
    </contour>
  </outline>
</glyph>
<glyph name="U" format="2">
  <advance width="1335"/>
  <unicode hex="0055"/>
  <outline>
    <contour>
      <point x="87" y="1500.0" type="line"/>
      <point x="480.0" y="1500" type="line"/>
      <point x="480.0" y="506" type="line" smooth="yes"/>
      <point x="480.0" y="423.0"/>
      <point x="580.0" y="299"/>
      <point x="673.0" y="299" type="qcurve" smooth="yes"/>
      <point x="677.0" y="299" type="line" smooth="yes"/>
      <point x="775.0" y="299"/>
      <point x="875.0" y="430.0"/>
      <point x="875.0" y="506" type="qcurve" smooth="yes"/>
      <point x="875.0" y="1500" type="line"/>
      <point x="1255" y="1500.0" type="line"/>
      <point x="1251" y="528.0" type="line" smooth="yes"/>
      <point x="1250.0" y="256.0"/>
      <point x="927.0" y="-19.0"/>
      <point x="676" y="-19.0" type="qcurve" smooth="yes"/>
      <point x="666" y="-19.0" type="line" smooth="yes"/>
      <point x="413.0" y="-19.0"/>
      <point x="87" y="276.0"/>
      <point x="87" y="554.0" type="qcurve" smooth="yes"/>
    </contour>
  </outline>
</glyph>
<glyph name="W" format="2">
  <advance width="1770"/>
  <unicode hex="0057"/>
  <outline>
    <contour>
      <point x="385" y="0" type="line"/>
      <point x="-20" y="1500" type="line"/>
      <point x="369" y="1500" type="line"/>
      <point x="595" y="715" type="line"/>
      <point x="763" y="1500" type="line"/>
      <point x="1013" y="1500" type="line"/>
      <point x="1179" y="723" type="line"/>
      <point x="1385" y="1500" type="line"/>
      <point x="1740" y="1500" type="line"/>
      <point x="1345" y="0" type="line"/>
      <point x="1074.0" y="0.0" type="line"/>
      <point x="874.0" y="686" type="line"/>
      <point x="856.0" y="686" type="line"/>
      <point x="656.0" y="0.0" type="line"/>
    </contour>
  </outline>
</glyph>
<glyph name="Z" format="2">
  <advance width="1088"/>
  <unicode hex="005A"/>
  <outline>
    <contour>
      <point x="1050" y="0" type="line"/>
      <point x="14" y="0" type="line"/>
      <point x="9" y="289" type="line"/>
      <point x="638" y="1216" type="line"/>
      <point x="4" y="1216" type="line"/>
      <point x="4" y="1500" type="line"/>
      <point x="1050" y="1500" type="line"/>
      <point x="1050" y="1216" type="line"/>
      <point x="423" y="284" type="line"/>
      <point x="1050" y="284" type="line"/>
    </contour>
  </outline>
</glyph>
<glyph name="bracketleft" format="2">
  <advance width="566"/>
  <unicode hex="005B"/>
  <outline>
    <contour>
      <point x="106" y="-280" type="line"/>
      <point x="106" y="1500" type="line"/>
      <point x="440" y="1500" type="line"/>
      <point x="440" y="-280" type="line"/>
    </contour>
    <contour>
      <point x="636" y="-280" type="line"/>
      <point x="299" y="-280" type="line"/>
      <point x="299" y="-40" type="line"/>
      <point x="636" y="-40" type="line"/>
    </contour>
    <contour>
      <point x="636" y="1260" type="line"/>
      <point x="294" y="1260" type="line"/>
      <point x="294" y="1500" type="line"/>
      <point x="636" y="1500" type="line"/>
    </contour>
  </outline>
</glyph>
<glyph name="asciicircum" format="2">
  <advance width="1000"/>
  <unicode hex="005E"/>
  <outline>
    <contour>
      <point x="692.0" y="1513.0" type="line"/>
      <point x="1088.0" y="833.0" type="line"/>
      <point x="738.0" y="833.0" type="line"/>
      <point x="490.0" y="1210.0" type="line"/>
      <point x="263.0" y="833.0" type="line"/>
      <point x="-88.0" y="833.0" type="line"/>
      <point x="302.0" y="1513.0" type="line"/>
    </contour>
  </outline>
</glyph>
<glyph name="grave" format="2">
  <advance width="1000"/>
  <unicode hex="0060"/>
  <outline>
    <contour>
      <point x="601.0" y="1419.0" type="line"/>
      <point x="832.0" y="1036.0" type="line"/>
      <point x="450.0" y="1036.0" type="line"/>
      <point x="151.0" y="1419.0" type="line"/>
    </contour>
  </outline>
</glyph>
<glyph name="a" format="2">
  <advance width="977"/>
  <unicode hex="0061"/>
  <outline>
    <contour>
      <point x="112" y="892.0" type="line"/>
      <point x="148" y="930.0"/>
      <point x="339" y="1014.0"/>
      <point x="481" y="1014.0" type="qcurve" smooth="yes"/>
      <point x="668" y="1014.0"/>
      <point x="908.0" y="828.0"/>
      <point x="910.0" y="669.0" type="qcurve" smooth="yes"/>
      <point x="910.0" y="0.0" type="line"/>
      <point x="574" y="0.0" type="line"/>
      <point x="574.0" y="592" type="line" smooth="yes"/>
      <point x="574.0" y="686"/>
      <point x="450.0" y="804"/>
      <point x="342.0" y="804" type="qcurve" smooth="yes"/>
      <point x="280.0" y="804"/>
      <point x="154.0" y="759"/>
      <point x="139.0" y="741" type="qcurve"/>
    </contour>
    <contour>
      <point x="612.0" y="150" type="line"/>
      <point x="603.0" y="101"/>
      <point x="446.0" y="-25"/>
      <point x="335.0" y="-25" type="qcurve" smooth="yes"/>
      <point x="190.0" y="-25"/>
      <point x="-5" y="150"/>
      <point x="-5" y="309.0" type="qcurve" smooth="yes"/>
      <point x="-5" y="477"/>
      <point x="199.0" y="651"/>
      <point x="349.0" y="651.0" type="qcurve" smooth="yes"/>
      <point x="437.0" y="651"/>
      <point x="593.0" y="605"/>
      <point x="613.0" y="592" type="qcurve"/>
      <point x="613.0" y="490" type="line"/>
      <point x="649.0" y="487"/>
      <point x="537.0" y="529"/>
      <point x="473.0" y="529" type="qcurve" smooth="yes"/>
      <point x="387.0" y="529"/>
      <point x="287" y="426"/>
      <point x="287.0" y="339" type="qcurve" smooth="yes"/>
      <point x="287.0" y="247"/>
      <point x="402" y="154"/>
      <point x="484.0" y="154.0" type="qcurve" smooth="yes"/>
      <point x="517" y="154.0"/>
      <point x="633.0" y="238"/>
      <point x="612.0" y="245" type="qcurve"/>
    </contour>
  </outline>
</glyph>
<glyph name="g" format="2">
  <advance width="1108"/>
  <unicode hex="0067"/>
  <outline>
    <contour>
      <point x="694" y="776.0" type="qcurve" smooth="yes"/>
      <point x="694" y="193.0" type="line" smooth="yes"/>
      <point x="694.0" y="47.0"/>
      <point x="531" y="-37.0"/>
      <point x="419" y="-37.0" type="qcurve" smooth="yes"/>
      <point x="370.0" y="-37.0" type="line" smooth="yes"/>
      <point x="209" y="-37"/>
      <point x="28" y="221.0"/>
      <point x="28.0" y="498.0" type="qcurve" smooth="yes"/>
      <point x="28.0" y="501.0" type="line" smooth="yes"/>
      <point x="28" y="742.0"/>
      <point x="210.0" y="1012.0"/>
      <point x="365.0" y="1012.0" type="qcurve" smooth="yes"/>
      <point x="413" y="1012.0" type="line" smooth="yes"/>
      <point x="529" y="1012.0"/>
      <point x="694" y="942.0"/>
    </contour>
    <contour>
      <point x="688" y="583.0" type="line" smooth="yes"/>
      <point x="688" y="681.0"/>
      <point x="604" y="808.0"/>
      <point x="550" y="808.0" type="qcurve" smooth="yes"/>
      <point x="546" y="808.0" type="line" smooth="yes"/>
      <point x="484" y="808.0"/>
      <point x="378" y="702.0"/>
      <point x="378" y="588.0" type="qcurve" smooth="yes"/>
      <point x="378" y="401.0" type="line" smooth="yes"/>
      <point x="378" y="267.0"/>
      <point x="472" y="160.0"/>
      <point x="536" y="160.0" type="qcurve" smooth="yes"/>
      <point x="540" y="160.0" type="line" smooth="yes"/>
      <point x="582" y="160.0"/>
      <point x="688.0" y="241.0"/>
      <point x="688" y="376.0" type="qcurve" smooth="yes"/>
    </contour>
    <contour>
      <point x="225" y="-281.0" type="line"/>
      <point x="204" y="-279.0"/>
      <point x="280" y="-293"/>
      <point x="389" y="-293.0" type="qcurve" smooth="yes"/>
      <point x="558.0" y="-293.0"/>
      <point x="700.0" y="-87.0"/>
      <point x="700" y="112.0" type="qcurve" smooth="yes"/>
      <point x="700" y="1000.0" type="line"/>
      <point x="1036" y="1000.0" type="line"/>
      <point x="1036.0" y="140" type="line" smooth="yes"/>
      <point x="1036.0" y="-190.0"/>
      <point x="674" y="-503.0"/>
      <point x="432" y="-503.0" type="qcurve" smooth="yes"/>
      <point x="298" y="-503.0"/>
      <point x="197" y="-490.0"/>
      <point x="193" y="-492.0" type="qcurve"/>
    </contour>
  </outline>
</glyph>
<glyph name="h" format="2">
  <advance width="1079"/>
  <unicode hex="0068"/>
  <outline>
    <contour>
      <point x="72" y="0" type="line"/>
      <point x="72" y="1500" type="line"/>
      <point x="418" y="1500" type="line"/>
      <point x="418" y="0" type="line"/>
    </contour>
    <contour>
      <point x="323" y="639" type="line"/>
      <point x="304" y="738"/>
      <point x="466" y="1012"/>
      <point x="648" y="1012.0" type="qcurve" smooth="yes"/>
      <point x="818" y="1012.0"/>
      <point x="1012.0" y="798.0"/>
      <point x="1012.0" y="615" type="qcurve" smooth="yes"/>
      <point x="1012" y="0" type="line"/>
      <point x="666" y="0" type="line"/>
      <point x="666.0" y="596" type="line" smooth="yes"/>
      <point x="666.0" y="680.0"/>
      <point x="581" y="750"/>
      <point x="530" y="750" type="qcurve" smooth="yes"/>
      <point x="478" y="750"/>
      <point x="374" y="693"/>
      <point x="327" y="604" type="qcurve"/>
    </contour>
  </outline>
</glyph>
<glyph name="i" format="2">
  <advance width="390"/>
  <unicode hex="0069"/>
  <outline>
    <contour>
      <point x="-19" y="0" type="line"/>
      <point x="-19" y="980" type="line"/>
      <point x="324" y="980" type="line"/>
      <point x="324" y="0" type="line"/>
    </contour>
    <contour>
      <point x="154.0" y="1080" type="line" smooth="yes"/>
      <point x="245.0" y="1080"/>
      <point x="346.0" y="1181"/>
      <point x="346.0" y="1264" type="qcurve" smooth="yes"/>
      <point x="346.0" y="1275" type="line" smooth="yes"/>
      <point x="346.0" y="1357"/>
      <point x="247.0" y="1461"/>
      <point x="154.0" y="1461" type="qcurve" smooth="yes"/>
      <point x="150.0" y="1461" type="line" smooth="yes"/>
      <point x="64.0" y="1461"/>
      <point x="-38.0" y="1357"/>
      <point x="-38.0" y="1275" type="qcurve" smooth="yes"/>
      <point x="-38.0" y="1264" type="line" smooth="yes"/>
      <point x="-38.0" y="1180"/>
      <point x="62.0" y="1080"/>
      <point x="150.0" y="1080" type="qcurve" smooth="yes"/>
    </contour>
    <contour>
      <point x="278" y="685" type="line"/>
      <point x="248" y="665" type="line"/>
      <point x="248" y="960" type="line"/>
      <point x="278" y="980" type="line"/>
    </contour>
  </outline>
</glyph>
<glyph name="k" format="2">
  <advance width="1099"/>
  <unicode hex="006B"/>
  <outline>
    <contour>
      <point x="72" y="0" type="line"/>
      <point x="72" y="1500" type="line"/>
      <point x="416" y="1500" type="line"/>
      <point x="416" y="0" type="line"/>
    </contour>
    <contour>
      <point x="656" y="520" type="line"/>
      <point x="416" y="318" type="line"/>
      <point x="416" y="579" type="line"/>
      <point x="505" y="693" type="line"/>
      <point x="760" y="980" type="line"/>
      <point x="1106" y="980" type="line"/>
      <point x="724" y="547" type="line"/>
    </contour>
    <contour>
      <point x="643" y="691" type="line"/>
      <point x="1146" y="0" type="line"/>
      <point x="776" y="0" type="line"/>
      <point x="377" y="556" type="line"/>
    </contour>
  </outline>
</glyph>
<glyph name="l" format="2">
  <advance width="371"/>
  <unicode hex="006C"/>
  <outline>
    <contour>
      <point x="70" y="142" type="qcurve" smooth="yes"/>
      <point x="70" y="1500" type="line"/>
      <point x="417" y="1500" type="line"/>
      <point x="417" y="0" type="line"/>
      <point x="194" y="0"/>
      <point x="70.0" y="12.0"/>
    </contour>
    <contour>
      <point x="111" y="30" type="line"/>
      <point x="190" y="20" type="line"/>
      <point x="160" y="245" type="line"/>
      <point x="111" y="255" type="line"/>
    </contour>
  </outline>
</glyph>
<glyph name="w" format="2">
  <advance width="1308"/>
  <unicode hex="0077"/>
  <outline>
    <contour>
      <point x="259" y="0" type="line"/>
      <point x="-40" y="980" type="line"/>
      <point x="250.0" y="980" type="line"/>
      <point x="410.0" y="491" type="line"/>
      <point x="514.0" y="980" type="line"/>
      <point x="790" y="980.0" type="line"/>
      <point x="905" y="489.0" type="line"/>
      <point x="1059" y="980.0" type="line"/>
      <point x="1347" y="980" type="line"/>
      <point x="1041" y="0" type="line"/>
      <point x="767" y="0.0" type="line"/>
      <point x="658" y="583" type="line"/>
      <point x="533" y="0.0" type="line"/>
    </contour>
  </outline>
</glyph>
<glyph name="x" format="2">
  <advance width="800"/>
  <unicode hex="0078"/>
  <outline>
    <contour>
      <point x="-50" y="0" type="line"/>
      <point x="526" y="980" type="line"/>
      <point x="810" y="980" type="line"/>
      <point x="234" y="0" type="line"/>
    </contour>
    <contour>
      <point x="524" y="0" type="line"/>
      <point x="-29" y="980" type="line"/>
      <point x="286" y="980" type="line"/>
      <point x="850" y="0" type="line"/>
    </contour>
  </outline>
</glyph>
<glyph name="y" format="2">
  <advance width="866"/>
  <unicode hex="0079"/>
  <outline>
    <contour>
      <point x="287" y="4" type="qcurve"/>
      <point x="-53" y="980" type="line"/>
      <point x="277.0" y="980" type="line"/>
      <point x="442.0" y="415" type="line"/>
      <point x="598.0" y="980" type="line"/>
      <point x="926" y="980" type="line"/>
      <point x="599" y="1" type="line" smooth="yes"/>
      <point x="512" y="-264"/>
      <point x="207" y="-500"/>
      <point x="86" y="-500" type="qcurve" smooth="yes"/>
      <point x="-6" y="-500"/>
      <point x="-71" y="-491"/>
      <point x="-94" y="-484" type="qcurve"/>
      <point x="-82" y="-222" type="line"/>
      <point x="-61" y="-227"/>
      <point x="20" y="-240"/>
      <point x="47" y="-240" type="qcurve" smooth="yes"/>
      <point x="88" y="-240"/>
      <point x="245" y="-115"/>
    </contour>
  </outline>
</glyph>
<glyph name="z" format="2">
  <advance width="795"/>
  <unicode hex="007A"/>
  <outline>
    <contour>
      <point x="785" y="0" type="line"/>
      <point x="35" y="0" type="line"/>
      <point x="30" y="205" type="line"/>
      <point x="401" y="751" type="line"/>
      <point x="53" y="751" type="line"/>
      <point x="53" y="980" type="line"/>
      <point x="765" y="980" type="line"/>
      <point x="765" y="781" type="line"/>
      <point x="389" y="225" type="line"/>
      <point x="785" y="225" type="line"/>
    </contour>
  </outline>
</glyph>
<glyph name="braceleft" format="2">
  <advance width="566"/>
  <unicode hex="007B"/>
  <outline>
    <contour>
      <point x="-12.0" y="482" type="line"/>
      <point x="118.0" y="481"/>
      <point x="166" y="413.0"/>
      <point x="166.0" y="368.0" type="qcurve" smooth="yes"/>
      <point x="166" y="334.0"/>
      <point x="132" y="275.0"/>
      <point x="109" y="239.0" type="qcurve" smooth="yes"/>
      <point x="85" y="203.0"/>
      <point x="46.0" y="116.0"/>
      <point x="46.0" y="-2.0" type="qcurve" smooth="yes"/>
      <point x="46.0" y="-98.0"/>
      <point x="221.0" y="-315"/>
      <point x="399.0" y="-400" type="qcurve"/>
      <point x="555.0" y="-189" type="line"/>
      <point x="447.0" y="-128"/>
      <point x="335.0" y="-6.0"/>
      <point x="335.0" y="45.0" type="qcurve" smooth="yes"/>
      <point x="335" y="109.0"/>
      <point x="356" y="186.0"/>
      <point x="386" y="235.0" type="qcurve" smooth="yes"/>
      <point x="420" y="289.0"/>
      <point x="477" y="376.0"/>
      <point x="477.0" y="443.0" type="qcurve" smooth="yes"/>
      <point x="477" y="498.0"/>
      <point x="321" y="599.0"/>
      <point x="207" y="613.0" type="qcurve"/>
      <point x="335" y="634.0"/>
      <point x="482" y="736.0"/>
      <point x="482.0" y="778.0" type="qcurve" smooth="yes"/>
      <point x="482" y="830.0"/>
      <point x="429" y="910.0"/>
      <point x="391" y="950.0" type="qcurve" smooth="yes"/>
      <point x="354" y="990.0"/>
      <point x="320" y="1067"/>
      <point x="320" y="1123.0" type="qcurve" smooth="yes"/>
      <point x="320" y="1180.0"/>
      <point x="452" y="1301.0"/>
      <point x="568" y="1355.0" type="qcurve"/>
      <point x="427" y="1526" type="line"/>
      <point x="300" y="1481"/>
      <point x="48" y="1332.0"/>
      <point x="48.0" y="1252.0" type="qcurve" smooth="yes"/>
      <point x="48" y="1149.0"/>
      <point x="86" y="1047.0"/>
      <point x="111" y="1005.0" type="qcurve" smooth="yes"/>
      <point x="136" y="963.0"/>
      <point x="170" y="894.0"/>
      <point x="170.0" y="857.0" type="qcurve" smooth="yes"/>
      <point x="170.0" y="809.0"/>
      <point x="120" y="737"/>
      <point x="-15" y="720" type="qcurve"/>
    </contour>
  </outline>
</glyph>
<glyph name="bar" format="2">
  <advance width="584"/>
  <unicode hex="007C"/>
  <outline>
    <contour>
      <point x="137" y="-500" type="line"/>
      <point x="137" y="1500" type="line"/>
      <point x="447" y="1500" type="line"/>
      <point x="447" y="-500" type="line"/>
    </contour>
  </outline>
</glyph>
